<svg width="22" height="22" viewBox="0 0 22 22" fill="none" xmlns="http://www.w3.org/2000/svg">
<g id="heart">
<path id="Vector" d="M19.1034 4.22555C18.6352 3.75714 18.0793 3.38556 17.4674 3.13205C16.8556 2.87853 16.1998 2.74805 15.5375 2.74805C14.8752 2.74805 14.2195 2.87853 13.6076 3.13205C12.9958 3.38556 12.4399 3.75714 11.9717 4.22555L11 5.19722L10.0284 4.22555C9.08264 3.27984 7.79998 2.74854 6.46253 2.74854C5.12508 2.74854 3.84241 3.27984 2.89669 4.22555C1.95098 5.17127 1.41968 6.45394 1.41968 7.79139C1.41968 9.12883 1.95098 10.4115 2.89669 11.3572L3.86836 12.3289L11 19.4606L18.1317 12.3289L19.1034 11.3572C19.5718 10.889 19.9434 10.3331 20.1969 9.7213C20.4504 9.10946 20.5809 8.45367 20.5809 7.79139C20.5809 7.12911 20.4504 6.47332 20.1969 5.86148C19.9434 5.24964 19.5718 4.69375 19.1034 4.22555Z" stroke="#FF6363" stroke-width="2" stroke-linecap="round" stroke-linejoin="round"/>
</g>
</svg>
