<svg width="20" height="20" viewBox="0 0 20 20" fill="none" xmlns="http://www.w3.org/2000/svg">
<path id="Vector" d="M14.4274 10.9001L10.7694 19C10.0418 19 9.34394 18.7155 8.82943 18.2092C8.31492 17.7029 8.02587 17.0161 8.02587 16.3V12.7001H2.84973C2.58461 12.7031 2.322 12.6493 2.08011 12.5424C1.83821 12.4356 1.62281 12.2783 1.44883 12.0814C1.27485 11.8845 1.14645 11.6527 1.07253 11.4021C0.998604 11.1515 0.980923 10.8881 1.02071 10.6302L2.28274 2.5303C2.34888 2.10109 2.57041 1.70987 2.90652 1.42871C3.24263 1.14756 3.67066 0.995418 4.11176 1.00033H14.4274M14.4274 10.9001V1.00033M14.4274 10.9001H16.8692C17.3868 10.9092 17.8897 10.7308 18.2825 10.399C18.6753 10.0672 18.9306 9.60502 19 9.10018V2.80029C18.9306 2.29545 18.6753 1.83326 18.2825 1.50145C17.8897 1.16964 17.3868 0.991317 16.8692 1.00033H14.4274" stroke="#4E4E4E" stroke-width="2" stroke-linecap="round" stroke-linejoin="round"/>
</svg>
